<svg xmlns="http://www.w3.org/2000/svg" xmlns:xlink="http://www.w3.org/1999/xlink" width="1600" zoomAndPan="magnify" viewBox="0 0 1200 284.999983" height="380" preserveAspectRatio="xMidYMid meet" version="1.0"><defs><g/><clipPath id="e0fcc52f5f"><rect x="0" width="1200" y="0" height="285"/></clipPath></defs><g transform="matrix(1, 0, 0, 1, 0, 0.000000000000035451)"><g clip-path="url(#e0fcc52f5f)"><g fill="#090c9b" fill-opacity="1"><g transform="translate(0.0000357895, 283.213752)"><g><path d="M 52.484375 0 L 159.152344 0 C 162.960938 0 166.347656 -3.386719 166.347656 -7.195312 L 166.347656 -33.015625 C 166.347656 -36.824219 162.960938 -40.210938 159.152344 -40.210938 L 52.484375 -40.210938 C 48.675781 -40.210938 45.289062 -43.597656 45.289062 -47.40625 L 45.289062 -73.226562 C 45.289062 -77.035156 48.675781 -80.421875 52.484375 -80.421875 L 159.152344 -80.421875 C 162.960938 -80.421875 166.347656 -83.808594 166.347656 -87.617188 L 166.347656 -154.070312 C 166.347656 -157.882812 162.960938 -161.265625 159.152344 -161.265625 L 133.332031 -161.265625 C 129.523438 -161.265625 126.136719 -164.652344 126.136719 -168.460938 L 126.136719 -194.28125 C 126.136719 -198.09375 122.75 -201.476562 118.941406 -201.476562 L 52.484375 -201.476562 C 48.675781 -201.476562 45.289062 -198.09375 45.289062 -194.28125 L 45.289062 -168.460938 C 45.289062 -164.652344 41.902344 -161.265625 38.09375 -161.265625 L 12.273438 -161.265625 C 8.464844 -161.265625 5.078125 -157.882812 5.078125 -154.070312 L 5.078125 -47.40625 C 5.078125 -43.597656 8.464844 -40.210938 12.273438 -40.210938 L 38.09375 -40.210938 C 41.902344 -40.210938 45.289062 -36.824219 45.289062 -33.015625 L 45.289062 -7.195312 C 45.289062 -3.386719 48.675781 0 52.484375 0 Z M 45.289062 -128.25 L 45.289062 -154.070312 C 45.289062 -157.882812 48.675781 -161.265625 52.484375 -161.265625 L 118.941406 -161.265625 C 122.75 -161.265625 126.136719 -157.882812 126.136719 -154.070312 L 126.136719 -128.25 C 126.136719 -124.441406 122.75 -121.054688 118.941406 -121.054688 L 52.484375 -121.054688 C 48.675781 -121.054688 45.289062 -124.441406 45.289062 -128.25 Z M 45.289062 -128.25 "/></g></g></g><g fill="#090c9b" fill-opacity="1"><g transform="translate(171.42543, 283.213752)"><g><path d="M 12.273438 0 L 38.09375 0 C 41.902344 0 45.289062 -3.386719 45.289062 -7.195312 L 45.289062 -73.226562 C 45.289062 -77.035156 48.675781 -80.421875 52.484375 -80.421875 L 118.941406 -80.421875 C 122.75 -80.421875 126.136719 -77.035156 126.136719 -73.226562 L 126.136719 -7.195312 C 126.136719 -3.386719 129.523438 0 133.332031 0 L 159.152344 0 C 162.960938 0 166.347656 -3.386719 166.347656 -7.195312 L 166.347656 -73.226562 C 166.347656 -77.035156 162.960938 -80.421875 159.152344 -80.421875 L 133.332031 -80.421875 C 129.523438 -80.421875 126.136719 -83.808594 126.136719 -87.617188 L 126.136719 -113.859375 C 126.136719 -117.671875 129.523438 -121.054688 133.332031 -121.054688 L 159.152344 -121.054688 C 162.960938 -121.054688 166.347656 -124.441406 166.347656 -128.25 L 166.347656 -194.28125 C 166.347656 -198.09375 162.960938 -201.476562 159.152344 -201.476562 L 133.332031 -201.476562 C 129.523438 -201.476562 126.136719 -198.09375 126.136719 -194.28125 L 126.136719 -128.25 C 126.136719 -124.441406 122.75 -121.054688 118.941406 -121.054688 L 52.484375 -121.054688 C 48.675781 -121.054688 45.289062 -124.441406 45.289062 -128.25 L 45.289062 -194.28125 C 45.289062 -198.09375 41.902344 -201.476562 38.09375 -201.476562 L 12.273438 -201.476562 C 8.464844 -201.476562 5.078125 -198.09375 5.078125 -194.28125 L 5.078125 -128.25 C 5.078125 -124.441406 8.464844 -121.054688 12.273438 -121.054688 L 38.09375 -121.054688 C 41.902344 -121.054688 45.289062 -117.671875 45.289062 -113.859375 L 45.289062 -87.617188 C 45.289062 -83.808594 41.902344 -80.421875 38.09375 -80.421875 L 12.273438 -80.421875 C 8.464844 -80.421875 5.078125 -77.035156 5.078125 -73.226562 L 5.078125 -7.195312 C 5.078125 -3.386719 8.464844 0 12.273438 0 Z M 12.273438 0 "/></g></g></g><g fill="#090c9b" fill-opacity="1"><g transform="translate(342.850823, 283.213752)"><g><path d="M 12.273438 -40.210938 L 38.09375 -40.210938 C 41.902344 -40.210938 45.289062 -36.824219 45.289062 -33.015625 L 45.289062 -7.195312 C 45.289062 -3.386719 48.675781 0 52.484375 0 L 118.941406 0 C 122.75 0 126.136719 -3.386719 126.136719 -7.195312 L 126.136719 -33.015625 C 126.136719 -36.824219 129.523438 -40.210938 133.332031 -40.210938 L 159.152344 -40.210938 C 162.960938 -40.210938 166.347656 -43.597656 166.347656 -47.40625 L 166.347656 -154.070312 C 166.347656 -157.882812 162.960938 -161.265625 159.152344 -161.265625 L 133.332031 -161.265625 C 129.523438 -161.265625 126.136719 -164.652344 126.136719 -168.460938 L 126.136719 -194.28125 C 126.136719 -198.09375 122.75 -201.476562 118.941406 -201.476562 L 52.484375 -201.476562 C 48.675781 -201.476562 45.289062 -198.09375 45.289062 -194.28125 L 45.289062 -168.460938 C 45.289062 -164.652344 41.902344 -161.265625 38.09375 -161.265625 L 12.273438 -161.265625 C 8.464844 -161.265625 5.078125 -157.882812 5.078125 -154.070312 L 5.078125 -47.40625 C 5.078125 -43.597656 8.464844 -40.210938 12.273438 -40.210938 Z M 45.289062 -47.40625 L 45.289062 -154.070312 C 45.289062 -157.882812 48.675781 -161.265625 52.484375 -161.265625 L 118.941406 -161.265625 C 122.75 -161.265625 126.136719 -157.882812 126.136719 -154.070312 L 126.136719 -47.40625 C 126.136719 -43.597656 122.75 -40.210938 118.941406 -40.210938 L 52.484375 -40.210938 C 48.675781 -40.210938 45.289062 -43.597656 45.289062 -47.40625 Z M 45.289062 -47.40625 "/></g></g></g><g fill="#090c9b" fill-opacity="1"><g transform="translate(514.276209, 283.213752)"><g><path d="M 166.347656 -7.195312 L 166.347656 -275.128906 C 166.347656 -278.9375 162.960938 -282.324219 159.152344 -282.324219 L 133.332031 -282.324219 C 129.523438 -282.324219 126.136719 -278.9375 126.136719 -275.128906 L 126.136719 -208.671875 C 126.136719 -204.863281 122.75 -201.476562 118.941406 -201.476562 L 52.484375 -201.476562 C 48.675781 -201.476562 45.289062 -198.09375 45.289062 -194.28125 L 45.289062 -168.460938 C 45.289062 -164.652344 41.902344 -161.265625 38.09375 -161.265625 L 12.273438 -161.265625 C 8.464844 -161.265625 5.078125 -157.882812 5.078125 -154.070312 L 5.078125 -47.40625 C 5.078125 -43.597656 8.464844 -40.210938 12.273438 -40.210938 L 38.09375 -40.210938 C 41.902344 -40.210938 45.289062 -36.824219 45.289062 -33.015625 L 45.289062 -7.195312 C 45.289062 -3.386719 48.675781 0 52.484375 0 L 159.152344 0 C 162.960938 0 166.347656 -3.386719 166.347656 -7.195312 Z M 126.136719 -154.070312 L 126.136719 -47.40625 C 126.136719 -43.597656 122.75 -40.210938 118.941406 -40.210938 L 52.484375 -40.210938 C 48.675781 -40.210938 45.289062 -43.597656 45.289062 -47.40625 L 45.289062 -154.070312 C 45.289062 -157.882812 48.675781 -161.265625 52.484375 -161.265625 L 118.941406 -161.265625 C 122.75 -161.265625 126.136719 -157.882812 126.136719 -154.070312 Z M 126.136719 -154.070312 "/></g></g></g><g fill="#090c9b" fill-opacity="1"><g transform="translate(685.701619, 283.213752)"><g><path d="M 52.484375 0 L 159.152344 0 C 162.960938 0 166.347656 -3.386719 166.347656 -7.195312 L 166.347656 -194.28125 C 166.347656 -198.09375 162.960938 -201.476562 159.152344 -201.476562 L 133.332031 -201.476562 C 129.523438 -201.476562 126.136719 -198.09375 126.136719 -194.28125 L 126.136719 -47.40625 C 126.136719 -43.597656 122.75 -40.210938 118.941406 -40.210938 L 52.484375 -40.210938 C 48.675781 -40.210938 45.289062 -43.597656 45.289062 -47.40625 L 45.289062 -194.28125 C 45.289062 -198.09375 41.902344 -201.476562 38.09375 -201.476562 L 12.273438 -201.476562 C 8.464844 -201.476562 5.078125 -198.09375 5.078125 -194.28125 L 5.078125 -47.40625 C 5.078125 -43.597656 8.464844 -40.210938 12.273438 -40.210938 L 38.09375 -40.210938 C 41.902344 -40.210938 45.289062 -36.824219 45.289062 -33.015625 L 45.289062 -7.195312 C 45.289062 -3.386719 48.675781 0 52.484375 0 Z M 52.484375 0 "/></g></g></g><g fill="#090c9b" fill-opacity="1"><g transform="translate(857.127028, 283.213752)"><g><path d="M 12.273438 0 L 118.941406 0 C 122.75 0 126.136719 -3.386719 126.136719 -7.195312 L 126.136719 -33.015625 C 126.136719 -36.824219 129.523438 -40.210938 133.332031 -40.210938 L 159.152344 -40.210938 C 162.960938 -40.210938 166.347656 -43.597656 166.347656 -47.40625 L 166.347656 -113.859375 C 166.347656 -117.671875 162.960938 -121.054688 159.152344 -121.054688 L 52.484375 -121.054688 C 48.675781 -121.054688 45.289062 -124.441406 45.289062 -128.25 L 45.289062 -154.070312 C 45.289062 -157.882812 48.675781 -161.265625 52.484375 -161.265625 L 159.152344 -161.265625 C 162.960938 -161.265625 166.347656 -164.652344 166.347656 -168.460938 L 166.347656 -194.28125 C 166.347656 -198.09375 162.960938 -201.476562 159.152344 -201.476562 L 52.484375 -201.476562 C 48.675781 -201.476562 45.289062 -198.09375 45.289062 -194.28125 L 45.289062 -168.460938 C 45.289062 -164.652344 41.902344 -161.265625 38.09375 -161.265625 L 12.273438 -161.265625 C 8.464844 -161.265625 5.078125 -157.882812 5.078125 -154.070312 L 5.078125 -87.617188 C 5.078125 -83.808594 8.464844 -80.421875 12.273438 -80.421875 L 118.941406 -80.421875 C 122.75 -80.421875 126.136719 -77.035156 126.136719 -73.226562 L 126.136719 -47.40625 C 126.136719 -43.597656 122.75 -40.210938 118.941406 -40.210938 L 12.273438 -40.210938 C 8.464844 -40.210938 5.078125 -36.824219 5.078125 -33.015625 L 5.078125 -7.195312 C 5.078125 -3.386719 8.464844 0 12.273438 0 Z M 12.273438 0 "/></g></g></g><g fill="#090c9b" fill-opacity="1"><g transform="translate(1028.560858, 283.213752)"><g/></g></g><g fill="#090c9b" fill-opacity="1"><g transform="translate(1089.088792, 283.213752)"><g/></g></g><g fill="#090c9b" fill-opacity="1"><g transform="translate(1149.620909, 283.213752)"><g><path d="M 12.273438 0 L 38.09375 0 C 41.902344 0 45.289062 -3.386719 45.289062 -7.195312 L 45.289062 -33.015625 C 45.289062 -36.824219 41.902344 -40.210938 38.09375 -40.210938 L 12.273438 -40.210938 C 8.464844 -40.210938 5.078125 -36.824219 5.078125 -33.015625 L 5.078125 -7.195312 C 5.078125 -3.386719 8.464844 0 12.273438 0 Z M 12.273438 0 "/></g></g></g></g></g></svg>